<?xml version="1.0" standalone="no"?>
<!DOCTYPE svg PUBLIC "-//W3C//DTD SVG 20010904//EN"
 "http://www.w3.org/TR/2001/REC-SVG-20010904/DTD/svg10.dtd">
<svg version="1.0" xmlns="http://www.w3.org/2000/svg"
 width="512.000000pt" height="512.000000pt" viewBox="0 0 512.000000 512.000000"
 preserveAspectRatio="xMidYMid meet">
<metadata>
Created by potrace 1.14, written by Peter Selinger 2001-2017
</metadata>
<g transform="translate(0.000000,512.000000) scale(0.100000,-0.100000)"
fill="#000000" stroke="none">
<path d="M2369 5116 c-2 -2 -34 -6 -70 -10 -97 -9 -283 -42 -375 -66 -111 -30
-267 -81 -278 -91 -6 -5 -16 -9 -23 -9 -28 0 -277 -122 -389 -191 -377 -229
-716 -585 -921 -964 -166 -306 -263 -620 -301 -965 -9 -86 -9 -418 1 -500 25
-223 94 -454 185 -620 135 -248 349 -470 605 -626 l94 -58 11 -70 c16 -98 18
-108 48 -216 78 -275 216 -456 431 -563 121 -60 318 -113 498 -133 28 -3 64
-7 80 -9 181 -26 1064 -27 1203 0 9 1 44 6 77 9 33 4 67 9 75 11 8 2 33 6 55
10 71 10 191 43 268 73 308 119 475 340 552 728 l19 91 82 46 c190 109 388
287 513 463 131 185 243 464 277 693 3 20 7 47 10 61 19 100 26 459 12 600
-60 599 -333 1163 -764 1582 -143 139 -310 268 -465 360 -182 109 -499 247
-623 272 -11 3 -66 16 -121 29 -55 14 -121 28 -146 31 -25 4 -57 9 -70 11 -78
13 -135 17 -330 20 -119 2 -218 2 -220 1z"/>
</g>
</svg>
